<svg xmlns="http://www.w3.org/2000/svg" id="Layer_3" data-name="Layer 3" viewBox="0 0 558.27 453.04">
  <defs fill="#000000">
    <style>
      .cls-1 {
        fill: #000000;
      }

      .cls-1, .cls-2, .cls-3, .cls-4, .cls-5, .cls-6 {
        stroke-width: 0px;
      }

      .cls-2 {
        fill: #5e1915;
      }

      .cls-3 {
        fill: #f5f5f5;
      }

      .cls-4 {
        fill: #e23229;
      }

      .cls-5 {
        fill: #211f21;
      }

      .cls-6 {
        fill: #e0b47c;
      }
    </style>
  </defs>
  <path class="cls-4" d="M2.95,176.52c4.85-12.34,31.42-44.13,136.16-56.63,128.18-13.55,235.26,84.61,346.51,51.06,32.82-9.9,42.21-20.32,44.29-27.09,8.34,14.07,5.21,19.8,6.25,25.01,1.04,5.21,14.07,46.37,13.55,70.34,4.69,8.86,11.99,15.11-5.73,27.1-17.72,11.98-74.51,36.47-149.54,29.17-75.03-7.29-219.37-73.99-295.97-50.02-76.59,23.97-66.17,40.12-69.82,45.33-9.9-12.5-2.61-16.67-7.82-29.18-5.21-12.5-19.28-48.98-11.99-71.9-1.56-4.17-5.89-13.19-5.89-13.19Z" fill="#000000"/>
  <path class="cls-2" d="M98.46,245.46c-100.81,30-85.04,82.57,7.98,47.79,51.88-19.4,71.59-36.81,83.72-48.13-26.69-4.86-67.03-7-91.7.33Z" fill="#000000"/>
  <path class="cls-1" d="M164.69,246.04c-53.28,45.3-126.25,59.19-122.44,36.05.64-4.71,3.71-9.41,6.07-12.9l-2.92-1.76c-1.66,1.15-3.33,2.29-5.03,3.4-21.17,46,66.16,25.05,132.18-23.63-2.63-.4-5.25-.79-7.85-1.16Z" fill="#000000"/>
  <path class="cls-1" d="M147.63,243.86c-44.66,40.3-110.4,49.45-92.67,23.58.55-.8,4.41-5.66,4.41-5.66l-8.15,1.73c-.6.38-1.2.77-1.79,1.16-17.25,34.97,47.07,23.95,106.01-19.89-2.6-.33-5.2-.64-7.81-.92Z" fill="#000000"/>
  <path class="cls-1" d="M132.4,242.51c-2.15,2.09-4.75,4.57-7.19,6.43-26.98,22.38-75.69,31.29-62.04,10.82l-2.33-1.26c-1.98.83-3.05,1.3-4.9,2.26-1.02,2.89-1.19,6.02.24,8.73,7.45,13.36,46.96-1.19,71.44-17.2,5.75-3.63,10.29-7.23,12.85-9.14-2.69-.25-5.38-.46-8.08-.65Z" fill="#000000"/>
  <path class="cls-1" d="M116.62,241.8c-2.16,1.88-4.46,3.59-6.83,5.19-6.53,4.38-13.7,7.96-21.16,10.47-3.03,1.02-6.15,1.87-9.32,2.29-1.08.14-7.47.81-7.04-1.34.2-1.01,1.28-2.12,1.88-2.94l-2.85-1.5c-1.28.57-2.57,1.15-3.85,1.71-.69,2.86-.32,5.7,2.19,7.22,8.54,5.38,44.85-14.15,53.86-18.84l-1.56-2.09c-1.77-.06-3.53-.14-5.31-.17Z" fill="#000000"/>
  <path class="cls-2" d="M352.95,165.11c34.13-19.16,57-31.02,103.94-35.68,97.56-9.69,94.03,36.12,0,46.69-48.29,5.43-85.89-8.15-103.94-11.01Z" fill="#000000"/>
  <path class="cls-1" d="M511.43,155.46c-1.04,1.91-2.57,3.48-4.07,5.05l2.64,2.27c1.88-.76,3.69-1.65,5.41-2.71,18.86-32.69-67.54-30.9-147.45,4.12l1.6,3.05c1.31.37,2.63.74,3.95,1.09,61.44-35.77,149.9-35.08,137.92-12.87Z" fill="#000000"/>
  <path class="cls-1" d="M496.7,152.34c2.56,1.33,3.97,3.17,3.96,4.74.24,2.99-3.25,6.52-5.32,8.65l1.66,1.41c2.48-.86,1.86-.63,6.54-2.09,2.11-3.43,2.95-7.52,1.21-11.23-.52-.75-.97-1.68-1.67-2.26-9.56-9.54-38.84-5.43-52.16-3.03-34.23,6.55-57.06,17.29-65.72,20.86l1.04,1.95c2.03.42,4.06.82,6.11,1.2,36.63-21.51,87.26-29.25,104.35-20.2Z" fill="#000000"/>
  <path class="cls-1" d="M488.48,163.88c.29,1.91-2.22,4.36-3.57,5.72l1.69,1.39c2.08-.76,4.16-1.56,6.2-2.34,1.67-4.09.66-7.53-1.86-9.62-6.29-5.48-21.5-4.48-29.82-3.53-26.18,2.86-47.54,12.41-58.65,17.07l.99,1.73c2.24.31,4.47.58,6.71.83,36.03-21.95,77.9-19.64,78.3-11.26Z" fill="#000000"/>
  <path class="cls-1" d="M476.75,169.63c.32.25.14.37.13.28-.06,0-.1-.01-.09,0-.07.08-.13.14-.15.2-.96,1.05.11.17-2.34,2.26l1.9,1.69c1.7-.33,3.42-.79,5.14-1.31.53-1.39.75-2.65.32-4.18-.6-1.67-2.03-2.87-3.72-3.37-9.66-3.66-46.87,6.55-57.24,9.31l.69,1.58c3.05.18,6.09.31,9.12.37,19.89-9.15,43.38-10.26,46.24-6.84Z" fill="#000000"/>
  <path class="cls-2" d="M228.67,128.71c43.58-31.41,77.82-99.33,7.07-105.27,77.26-44.15,117.73,35.94,50.94,120.27-20.66-5.67-58.01-15-58.01-15Z" fill="#000000"/>
  <path class="cls-1" d="M247.35,130.42c6.16-6.29,12.19-12.82,17.08-20.01,3.51-4.78,9.77-17.13,1.87-5.65-5.01,6.54-9.32,11.71-24.67,24.37,1.91.38,3.81.82,5.71,1.3Z" fill="#000000"/>
  <path class="cls-1" d="M258.36,133.62c.98-1.08,4.06-4.44,4.91-5.44.47-.62,4.69-6.16,5.12-6.79,6.4-10.55,3.85-6.43,5.52-9.62,3.56-7.4,3.24-8.03-1.4-.82-7.58,11.02-12.12,14.56-19.19,20.64l.58.64c1.49.44,2.98.91,4.46,1.39Z" fill="#000000"/>
  <path class="cls-1" d="M268.58,137.09c11.47-12.5,19.01-28.51,19.01-28.51,3.47-7.26,2.85-7.51-1.28-.72,0,0-9.51,15.88-22.77,27.15l.44.48c1.54.53,3.07,1.06,4.6,1.6Z" fill="#000000"/>
  <path class="cls-1" d="M300.77,99.74s-10.96,21.96-27.18,38.59l.77.77c1.36.47,2.72.93,4.07,1.39,14.6-17.92,23.66-40.12,23.66-40.12,3.99-9.91,3.35-10.08-1.32-.63Z" fill="#000000"/>
  <path class="cls-1" d="M252.06,14.55c-1.98.65-3.94,1.38-5.89,2.13l-.1,2.21c3.27.15,12.76.16,21.49,4.96,7.06,3.77,11.77,9.16,14.9,16.23,1.93,4.66,2.03,7.29,2.39,7.25.16.02.61-2.72-1.02-7.76-4.91-14.13-16.63-22.27-31.76-25.04Z" fill="#000000"/>
  <path class="cls-1" d="M284.87,22.47c-1.18-1.82-2.97-3.23-4.56-4.89-3.54-2.86-5.49-4.26-9.78-6.49-2.18.09-3.77.19-6.98.69l-.5,1.49c7.9,2.59,9.51,3.24,15.2,6.9,1.57,1.35,3.4,2.49,4.62,4.02,2.35,2.52,1.6,1.58,3.35,4.19,1.12,1.76.58.49,2.46,4.68.54,1.03.92,2.76,1.37,4.04.62,1.79.92,1.86.77-.14-.42-5.51-2.57-9.96-5.95-14.48Z" fill="#000000"/>
  <path class="cls-1" d="M292.54,17.86c-.7-1.07-3.48-3.93-4.14-4.45-3.19-.81-6.41-1.47-9.62-1.88l-.48.98c6.82,3.18,10.7,5.35,15.03,11.52,1.57,1.96,3.17,5.99,4.05,8.18,1.95,6.18,2.62,6.15,1.41-.41-1.61-6.14-2.54-8.82-6.25-13.94Z" fill="#000000"/>
  <path class="cls-1" d="M301.05,17.37c-1.39-.5-2.8-.99-4.23-1.47l-1.86,1.8s1.05,1.04,2.62,2.61c6.99,8.03,10.55,17.83,10.55,17.83,4.81,12.56.63-9.69-7.08-20.77Z" fill="#000000"/>
  <path class="cls-4" d="M281.3,9.01c-105.27-29.71-132.72,79.8-54.33,84.62,42.66,2.62,74.99-26.04,100.46-39.34-39.05,11.32-71.6,21.51-87.16,9.9-15.56-11.6-22.36-56.32,41.03-55.18Z" fill="#000000"/>
  <path class="cls-5" d="M251.86,5.46c-16.1,4.77-27.94,10.39-34.46,25.81-1.79,4.69-2.28,7.22-2.62,7.15-.18-.03-.22-2.65,1.24-7.64,1.68-5.09,3.21-8.35,7.04-13.14,6.71-7.74,15.73-12.81,25.34-16.33,1.2-.46,1.89-.73,1.89-.73l1.57,4.87Z" fill="#000000"/>
  <path class="cls-5" d="M227.25,8.85c-11.88,8.3-17.08,12.24-22.79,20.74-.73,1.08-2.1,3.75-2.78,5.03-3.04,7.56-3.73,7.54-1.36-.56,5.07-12.25,9.45-16.53,19.33-25.45,2.69-2.3,4.49-3.83,4.49-3.83l3.1,4.07Z" fill="#000000"/>
  <path class="cls-5" d="M245.44,91.13c.59-.06,1.17-.14,1.76-.2l.37-2.43c-13.24-1.52-27.23-4.53-38.25-12.02-3.61-2.63-4.95-4.5-5.22-4.3-.17.08.78,2.35,4.31,5.44,9.16,7.58,21.01,11.81,32.72,14.65,1.33-.58,2.79-.98,4.31-1.14Z" fill="#000000"/>
  <path class="cls-5" d="M285.8,78.09c.15-.1.33-.17.49-.26l-.94-2.84c.06.17-11.39,3.38-12.34,3.59-5.12,1.17-10.4,2.01-15.65,2.02-3.1,0-6.39-.17-9.44-.78-3.72-.74-7.2-1.66-10.78-2.9-.53-.18-1.06-.35-1.59-.55-.62-.24-6.11-2.89-6.75-3.19-8.82-5.13-8.25-4.22-.66,1.13,1.62.91,3.22,1.84,4.85,2.74,2.17,1.19,4.52,1.97,6.76,3.01,2.46,1.15,5.14,1.71,7.78,2.29,4.77,1.05,9.64,1.6,14.53,1.55,4.53-.04,9.05-.58,13.49-1.41,2.14-.4,4.27-.88,6.38-1.39,1.24-1.06,2.48-2.12,3.86-2.99Z" fill="#000000"/>
  <path class="cls-2" d="M219.72,250.48c-51.04,40.83-52.12,82.97-16.94,95.13,12.52-39.34,73.65-69.37,91.46-74.58-22.15-6.52-74.52-20.55-74.52-20.55Z" fill="#000000"/>
  <path class="cls-1" d="M194.44,341.42l3,.88c1.23-4.63,3.59-14.71,8.9-22.58,3-4.46,2.87-5.36-1.9-.07-2.25,2.16-7.34,10.97-8.7,13.76-.88,2.04-2.09,4.87-2.97,6.92.56.36,1.12.73,1.68,1.09Z" fill="#000000"/>
  <path class="cls-1" d="M189.75,338.27l.87.24c1.84-8.38,1.79-8.68,5.2-17.8.48-1.35.8-1.84,1.5-3.09,2.33-4.27,1.89-4.79-1.23-.79-4.21,5.4-7.31,12.57-9.76,18.74,1.09.97,2.24,1.86,3.43,2.7Z" fill="#000000"/>
  <path class="cls-1" d="M183.37,331.22l2.28.41c1.01-8.31,1.59-14.76,4.96-22.51,3.8-8.63-2.01-.07-3.19,2.55-1.75,3.52-3.18,6.07-5.75,15.3.84,1.6,1.05,2.5,1.7,4.25Z" fill="#000000"/>
  <path class="cls-1" d="M227.1,254.89c-4.96,4.27-9.56,7.81-20.69,20.75-4.28,5-12.21,16.44-2.6,5.65,11.23-12.65,25.35-21.98,28.78-24.41l-.95-1.33c-1.51-.23-3.03-.45-4.54-.66Z" fill="#000000"/>
  <path class="cls-1" d="M238.59,256.68c-.78.64-5.28,4.37-6.06,5.02-7.42,6.28-14.47,14.12-15.46,15.6-5.74,7.67-4.81,7.57.23,2.14,7.28-7.84,17.48-14.49,26.55-20.48l-1.06-1.5c-1.4-.27-2.79-.53-4.19-.78Z" fill="#000000"/>
  <path class="cls-1" d="M251.16,259.23c-11.65,8.96-16.81,13.04-22.83,19.96-2.26,2.78-3.06,4.41-2.88,4.53.25.18,1.47-1.11,3.95-3.53,6.69-6.14,11.78-9.22,26.07-17.84l-1.68-2.45c-.88-.22-1.75-.46-2.63-.67Z" fill="#000000"/>
  <path class="cls-1" d="M262.01,262.23c-17.14,13.03-21.34,15.75-26.24,20.47-5.47,5.25-5.71,6.31,2.12.21,2.56-2.19,15.64-9.75,28.55-17.63l-1.46-2.05c-2.56-.89,0-.05-2.97-1Z" fill="#000000"/>
  <path class="cls-1" d="M273.14,266.37c-9.38,5.73-15,8.86-29.48,19.99-1.66,1.29-3.08,2.3-3.95,3.18-9.25,8.44-8.21,8.42-.5,2.44,12.92-10.01,35.63-20.94,38.19-22.24l-1.05-2.02c-1.07-.46-2.13-.91-3.21-1.36Z" fill="#000000"/>
  <path class="cls-4" d="M177.25,314.87c6.01,41.24,79.61,53.54,140.09,14.66-33.27,53.85-154.12,73.39-140.09-14.66Z" fill="#000000"/>
  <path class="cls-5" d="M198.95,356.55s-1.67-.87-3.93-2.52c-1.17-.76-2.35-1.91-3.7-2.98-5.05-5.21-6.35-6.35-11.94-16.19l-1.2.72c0,2.09.02,4.18.06,6.27,5.21,6.63,12.21,13.05,20.08,16.02,3.16,1.33,4.89,1.55,4.96,1.35.11-.3-1.43-1.02-4.32-2.67Z" fill="#000000"/>
  <path class="cls-5" d="M307.13,342.71c-15.18,9.73-28.99,15.54-52.32,19.27-12.26,1.34-12.24.67-.25-1.44,19.2-4.33,33.78-10.33,49.51-21.92l3.06,4.1Z" fill="#000000"/>
  <path class="cls-2" d="M212.47,418.19c2.09,6.69,8.21,20.18,14.26,23.97,6.32,3.97,15.91,8.51,23.34,8.09,14.38-.81,31.93-3.02,43.01-12.31,4.97-4.17,9.68-13.29,12.68-19.11.95-1.84-2.92-18.27-4.74-19.71-2.52-1.97-4.63,9.08-6.19,10.61-5.05,4.93-8.57,6.91-14.66,10.6-7.12,4.32-16.27,8.18-24.46,9.02-8.9.92-16.27,0-24.9-2.42-7.13-1.99-10.88-7.52-17.45-10.51l-.88,1.76Z" fill="#000000"/>
  <path class="cls-1" d="M245.32,438.64c-13.37-1.06-21.46-8.64-27.76-14.42l-.56.62c-.02,1.92,0,3.72.48,5.58.02.04.05.08.08.12,8.09,5.95,17.53,9.91,27.71,9.57,3.72-.07,5.51-.62,5.5-.82-.01-.33-1.87-.32-5.45-.64Z" fill="#000000"/>
  <path class="cls-1" d="M305.52,406.56l-2.88-1.28c-2.12,4.9-3.23,8.14-7.5,14.01-1.79,2.78-6.34,7.42-11.95,10.49-3.14,1.76-4.83,2.51-4.71,2.81.07.19,1.93-.05,5.35-1.5,10.42-4.27,16.83-11.99,22.19-21.45-.17-1.03-.33-2.06-.49-3.08Z" fill="#000000"/>
  <path class="cls-5" d="M274.44,71.91c-.36,0-.73-.07-1.08-.22-1.43-.6-2.12-2.24-1.52-3.68,2.33-5.62,4.53-17.73-1.99-27.51-5.76-8.63-16.78-13.01-32.75-13.01-1.55,0-2.82-1.26-2.82-2.82s1.26-2.81,2.82-2.81c22.38,0,32.7,8.44,37.43,15.51,6.86,10.28,6.2,23.87,2.5,32.79-.45,1.08-1.5,1.74-2.6,1.74Z" fill="#000000"/>
  <path class="cls-5" d="M2.86,181.36c9.79-7.53,9.99-7.76,11.75-8.75,6.15-3.8,12.12-8.05,27.88-14.25,9.41-3.67,9.59-3.04.59,1.34-20.91,10.25-29.23,18.63-36.75,25.42l-3.47-3.76Z" fill="#000000"/>
  <path class="cls-5" d="M6.26,193.74c6.64-6.06,11.97-11.21,22.64-16.26,5.57-2.62,5.78-1.99.71,1.28-8.9,5.75-12.79,10.34-19.6,18.46l-3.75-3.48Z" fill="#000000"/>
  <path class="cls-5" d="M4.97,208.55c4.87-4.31,7.63-7.4,19.73-14.04,4.65-2.54,4.98-1.97.8,1.23-8.69,6.66-10.91,9.19-16.78,16.29l-3.75-3.48Z" fill="#000000"/>
  <path class="cls-5" d="M7.12,219.65c3.98-3.63,3.75-3.6,8.31-6.91,5.61-3.91,18.18-9.6,10.03-3.89-8.97,6.28-11.58,10.4-14.45,14.12l-3.89-3.32Z" fill="#000000"/>
  <path class="cls-5" d="M10.27,231.43c5.28-4.92,8.36-7.71,16.64-11.67,4-1.91,4.27-1.31.75,1.26-8.34,6.07-10.85,10.17-13.45,13.68l-3.94-3.26Z" fill="#000000"/>
  <path class="cls-5" d="M13.45,243.44c5.35-4.99,8.71-8.26,18.32-12.89,4.41-2.12,4.68-1.52.75,1.26-9.14,6.44-11.94,10.73-15.15,14.92l-3.92-3.29Z" fill="#000000"/>
  <path class="cls-5" d="M17.98,253.51s1.42-1.11,3.56-2.76c8.79-7.46,35.19-18.96,21.59-10.71-11.99,7.28-15.92,11.44-21.66,17.21l-3.49-3.74Z" fill="#000000"/>
  <path class="cls-5" d="M20.02,269.06c10.44-10.03,18.26-15.69,37.18-23.66,9.11-3.37,9.29-2.74.59,1.34-14.8,7.75-22.78,13.08-33.96,25.74l-3.81-3.42Z" fill="#000000"/>
  <path class="cls-5" d="M553.71,249.47c-11.98,8.13-7.54,5.4-18.44,11.29-8.09,4.83-40.2,15.01-20.37,6.65,0,0,2.43-1.03,6.07-2.59,10.76-5.68,11.14-5.81,12.7-6.94,10.09-6.62,5.81-3.46,16.78-12.36l3.26,3.95Z" fill="#000000"/>
  <path class="cls-5" d="M551.86,236.36c-9.25,7.04-14.43,10.88-25.05,14.76-6.03,2.2-6.18,1.55-.59-1.34,10.94-5.65,16.98-12.08,22.23-17.24l3.41,3.82Z" fill="#000000"/>
  <path class="cls-5" d="M551.3,222.35c-4.01,3.17-7.99,6.89-20.19,12.69-4.72,2.24-5.01,1.65-.73-1.27,9-6.15,11.2-8.44,17.38-15.11l3.55,3.69Z" fill="#000000"/>
  <path class="cls-5" d="M549.5,210.34c-6.75,5.5-10.12,7.78-18.17,11-4.31,1.72-4.54,1.1-.66-1.31,7.53-4.67,10.23-7.55,15.14-13.23l3.7,3.54Z" fill="#000000"/>
  <path class="cls-5" d="M546.57,199.43c-6.24,4.56-9.38,6.5-16.74,9-3.92,1.33-4.12.7-.61-1.33,6.47-3.75,8.87-6,13.8-11.35l3.55,3.69Z" fill="#000000"/>
  <path class="cls-5" d="M543.98,187.11c-6.31,4.64-9.56,6.67-17.15,9.27-4.02,1.38-4.23.75-.61-1.33,6.69-3.85,9.18-6.18,14.21-11.62l3.55,3.69Z" fill="#000000"/>
  <path class="cls-5" d="M539.75,175.11c-7.21,4.91-11.58,7.74-22.76,11.85-5.28,1.94-5.49,1.32-.6-1.33,6.55-3.56,3.47-1.86,10.67-6.47,6.06-4.89,2.07-1.25,9.42-7.97l3.28,3.93Z" fill="#000000"/>
  <path class="cls-5" d="M539.95,158.66c-10.59,9.12-18.66,14.6-38.97,21.86-9.41,2.9-9.56,2.26-.52-1.37,18.74-8.5,25.94-14.08,35.88-24.12l3.61,3.63Z" fill="#000000"/>
  <path class="cls-5" d="M232.12,111.61c-19.92-4.23-18.88-4.12-21.06-4.38-51.08-7.7-87.4-5.59-139.63,10.45-30.94,11.24-42.37,17.6-60.92,29.83-1.46.97-2.83-1.02-1.56-2.03,20.5-16.23,35.8-23.67,60.58-33.25,51.42-16.9,90.76-18.85,142.37-8.67,2.57.44,5.46,1.26,20.82,5.57,1.59.44.99,2.82-.61,2.48Z" fill="#000000"/>
  <path class="cls-5" d="M193.54,260.79c-13.34,14.85-18.92,19.03-35.81,30.55-16.65,9.53-29.44,16.63-56.51,23.31-10.44,2.43-23.38,4.67-33.93,4.94-4.07.19-6.39.22-6.39.22-1.57.02-1.78-2.27-.24-2.54h.05s2.27-.41,6.23-.98c7.17-.89,20.55-4.01,27.04-5.55,41.02-11.23,67.66-24.28,97.73-51.74.52-.47,1.33-.44,1.81.08.44.49.44,1.23,0,1.72Z" fill="#000000"/>
  <path class="cls-5" d="M518.18,295.66c-21.34,8.38-47.78,17.99-81.78,20.59-37.46,2.22-55.29-.63-85.27-7.6-26.97-6.69-50.63-17.22-60.23-21.37-1.24-.53-.56-2.43.81-1.97,10.61,3.54,65.12,25.87,123.07,26.92,43.26-.45,65.72-6.28,102.67-18.56,1.31-.44,2,1.5.72,2Z" fill="#000000"/>
  <path class="cls-6" d="M166.14,303.02c-2.43,4.32-1.9,3.25-2.77,5.28-7.5,17.43-4.7,38.72,4.51,54.51,1.45,2.48.55,4.91-1.36,6.03-2.1,1.23-4.87.45-5.96-1.84-4.71-9.86-6.01-17.07-6.83-27.2-.23-14.93,1.64-25.66,10.25-38.14.91-1.33,2.96-.06,2.17,1.35Z" fill="#000000"/>
  <path class="cls-2" d="M152.84,311.97s-.51.61-1.4,1.68c-5.98,7.69-23,18.1-45.45,19.88-2.33.18-4.37-1.56-4.55-3.89-.19-2.47,1.78-4.64,4.38-4.56,2.56.08,3.94.19,7.61-.04,12.82-.76,25.15-5.29,31.63-9.93,2.56-1.64,4.02-3.09,5.92-4.89,1.16-1.11,2.89.52,1.86,1.75Z" fill="#000000"/>
  <path class="cls-6" d="M181.28,90.72s-.84-.59-2.31-1.62c-14.33-10.12-25.79-33.5-23.61-58.45.2-2.33,2.25-4.05,4.58-3.85,2.35.2,4.29,2.29,3.75,5.23-2.54,14.02.03,28.98,6.48,41.29,4,7.1,6.46,10.09,12.68,15.38,1.24,1.04-.23,2.95-1.56,2.02Z" fill="#000000"/>
  <path class="cls-2" d="M166.12,87.22c-5.85-2.49-12.41-4.52-23.93-3.79-14.17.89-24.73,6.03-23.57,5.55-2.16.89-4.64-.13-5.53-2.29-.96-2.31.28-4.97,2.75-5.69,16.49-4.79,36.25-4.75,51.42,3.93,1.39.79.33,2.92-1.14,2.29Z" fill="#000000"/>
  <path class="cls-6" d="M438.86,117.2c16.02-7.86,29.05-11.5,56.01-9.79,2.12.14,3.72,1.97,3.59,4.08-.14,2.13-2.01,3.93-4.63,3.52-13.8-2.18-23.63-2.99-37.28-.65-1.57.33-3.16.48-4.54.92-7,1.92-4.11.97-12.23,4.04-1.37.52-2.24-1.48-.92-2.13Z" fill="#000000"/>
  <path class="cls-2" d="M446.87,104.92c3.49-4.36,2.55-3.02,4.92-6.97.53-.77.89-1.78,1.36-2.72,2.94-6.91,3.28-8.49,4.48-15.61.45-4.98.37-3.76.43-8.49.03-2.13,1.77-3.83,3.9-3.81,2.13.03,3.83,1.77,3.81,3.9,0,.56-.65,4.95-1.13,6.74-2.26,9.48-4.57,13.62-7.97,19.23-3.93,5.7-4.85,6.25-8.08,9.3-1.05.99-2.61-.45-1.71-1.58Z" fill="#000000"/>
  <path class="cls-6" d="M335.27,314.53c3.84,9.42,2.99,7.01,4.95,14.32.72,2.26,1.65,10,1.56,11.57-.11,9.57.03,5.48-.94,12.53-.21,2.1-.84,4.05-1.42,5.96-1.55,5.19-.8,3.23-3.9,10.18-1.21,2.56.2.23-5.35,9.23-1.22,1.99-3.83,2.61-5.81,1.39-2.11-1.3-2.66-4.12-1.19-6.11,1.72-2.34,3.9-5.24,4.72-6.35,2.06-2.89,6.35-11.8,7.05-15.63.41-1.82.98-3.66,1.3-5.55.83-8.17.74-6.04.56-11.27-.28-8.52-2.19-13.67-3.94-19.43-.47-1.55,1.8-2.36,2.41-.85Z" fill="#000000"/>
  <path class="cls-2" d="M347.97,320.31c13.45,9.16,31.03,10.7,46.94,7.55,2.29-.45,4.52,1.03,4.97,3.33.46,2.29-1.03,4.52-3.33,4.98-2.56.52-14.5,1.1-26.91-2.07-9.15-2.33-16.44-5.84-23.24-11.76-1.21-1.05.25-2.93,1.56-2.02Z" fill="#000000"/>
  <path class="cls-2" d="M384.83,131.9c-14.12,2.63-23.11,6.3-33.43,11.16-13.6-5.34-26.85-9.13-41.03-11.97-1.25-.24-1.75,1.55-.56,1.99,9.56,3.64,25.3,8.76,40.67,15.06.76.31,1.45.24,2.17-.05,4.01-1.84,7.47-3.81,20.3-9.06.63-.26,11.87-4.87,12.5-5.15,1.11-.5.58-2.19-.62-1.97Z" fill="#000000"/>
  <path class="cls-5" d="M553.03,239.68c.51-25.93-7.28-52.35-13.9-69.93-.34-.9.13-4.05.42-5.94.5-3.37.93-6.28.04-8.34-2.87-6.6-8.22-17.02-14.3-20.92-23.39-15.02-101.67-12.65-172.45,24.67-20.02-5.15-40.53-11.39-61.12-18.02,24.49-31.65,33.93-69.36,31.73-80.36,29.4-15.39,48.98-16.75,73.49-15.53,59.08,3.52,52.54,70.46-1.26,71.83-3.13.07-11.33.57-20.23-2-35.67-10.54-23.1-50.22,22.36-38.58,3.53.84,9.51,5.12,8.31,8.54-1.77,5.98-12.28,6.35-17.09,6.6-4.11.21-3.68,5.37-.37,5.62,6.46.48,4.46.39,8.77.16,23.51-2.56,21.51-25.4-1.71-30.32-35.81-7.2-57.08,16.47-45.1,37.3,12.59,21.52,47.96,16.71,42.52,17.11,61.82-4.49,66.14-67.19,17.05-79.77-10.93-2.36-17.24-2.16-16.75-2.14-.3-.14-.63-.24-.99-.26-27.52-1.59-48.95,4.88-69.17,12.07-7.15-41.32-53.21-56.77-89.49-49.87-73.42,13.97-66.59,84.45-16.11,93.35,13.52,3.18,31.71-.36,45.11-4.55-6.45,10.78-17.26,24.11-30.43,33.11-77.33-17.98-143.66-9.81-217.02,32.67-6.94,4.02-12,10.56-15.05,19.44-1.78,5.23,5.53,11.24,5.2,13.85-2.98,23.09,1.6,47.87,13.98,75.75.32.88-.32,4.1-.71,6.03-2,9.89-1.22,7.31,8.29,24.44,1.42,2.56,2.4,4.92,4.61,6.89,21.92,19.47,105.98-13.46,157.37-51.01,5.6.92,9.56,1.54,21.46,4.03-25.86,22.7-33.89,41.11-35.01,54.23-.06.16-.1.33-.13.51-5.79,33.98,3.46,61.46,37.42,66.5-16.8,41.5,6.25,89.5,61.66,72.81,29.13-8.78,37.71-28.62,33.35-43.33-7.87-26.63-52.03-23.23-55.94-6.08-1.81,7.91,5.56,15.47,17.81,11.24,3.52-1.21,1.68-6.54-1.84-5.32-12.66,4.36-14.95-8.02-1.63-11.88,13.67-3.96,24.27-.86,27.93,2.54,3.08,2.87.45,8.3-1.59,10.87-9.54,12.02-40.79,22.19-62.29,16.48-22.39-5.94-19.32-24.88-11.7-46.69,67.97,4.74,120.11-53.6,101.54-67.92-14.09-10.84-63.56,6.51-93.23,38.47-7.61-.61-14.47-2.02-20.44-4.15,2.51-3.08,9.57-34.76,81.48-68.09,57.29,16.95,117.19,35.46,186.81,19.57,24.58-4.63,49.52-13.45,74.87-28.02,4.23-2.43,7.13-7.18,8.61-14.1,1.03-4.83-5.19-10.41-5.13-13.53ZM300.63,403.81c6.96,12.35.44,31.91-27.84,40.44-23.84,7.19-46.45,2.5-55.93-20.26,22.58,17.2,78.64,1.63,83.78-20.18ZM526.34,144.95c-.12,1.89-2.02,7.04-16.81,13.93-17.89,8.33-35.61,12.99-53.29,14.94-30.36,1.46-65.68-5.4-95.08-12.54,84.02-41.93,166.2-31.12,165.19-16.33ZM317.51,51.26c.05.28.32,1.84.4,2.12-31.77,11.5-62.78,22.77-78.5,5.44-8.76-9.66-14.13-33.72,16.02-43.14,27.23-8.51,56.49,4.65,62.08,35.58ZM204.46,84.31c-32.11-17.68-26.45-68.03,31.39-77.16-3.13.46,14.97-3.11,32.9.52-58.49,3.01-51.14,65.82-6.4,65.82,13.36,0,33.06-6.14,45.66-10.58-28.63,16.12-72.54,38.81-103.55,21.4ZM270.51,87.76c18.45-6.96,31.99-15.5,47.43-23.99-.09,20.18-13.9,52.93-31.92,75.57-17.69-5.75-27.6-9.34-46.46-14.1,17.89-13.87,30.33-34.5,30.95-37.49ZM73.4,300.06c-45.83,9.78-50.07-11.16-29.31-28.09,41.93-28.48,86.53-29.17,136.97-21.66-36.09,25.3-80.3,43.91-107.66,49.74ZM316.61,314c3.58,2.76,1.04,8.58-1.79,13.05-15.14,17.84-57.26,21.53-80.49,21.29,30.13-29.96,72.88-41.58,82.28-34.34ZM302.05,342.82c-13.44,12.59-32.79,22.65-52.35,26.51-39.05,7.71-69.61.48-70.33-39.81,20.18,37.2,99.11,24.04,122.68,13.3ZM201.61,340.99c-.12.28-.15.57-.17.86-33.53-15.61-24.5-50.62,15.89-84.79,23.92,5.28,43.55,10.8,62.42,16.31-30.91,15.03-65.74,37.73-78.14,67.61ZM546.74,262.43c-178.26,102.44-338.38-86.17-494.36-2.64-13.2,7.07-22.18,16.5-24.99,25.37-1.3-2.22-2.58-4.57-3.85-7.03-.28-.84.34-3.94.71-5.78.72-3.61,1.41-7.01.34-9.4-11.96-26.93-16.39-50.73-13.55-72.77.39-3.02-1.46-5.85-3.24-8.58-.85-1.3-2.26-3.47-2.21-4.15,2.59-7.56,6.81-13.08,12.54-16.39,202.15-117.07,339.21,74.95,493.76,2.93,9.87-4.6,16.11-9.36,18.69-14.21,1.22,2.24,2.5,4.9,3.82,7.91.24.77-.18,3.6-.43,5.3-.5,3.33-.97,6.49-.12,8.75,6.45,17.13,14.03,42.8,13.54,67.84-.05,2.78,1.58,5.53,3.16,8.19.79,1.33,2.12,3.57,2.09,4.27-1.13,5.3-3.13,8.8-5.91,10.4Z" fill="#000000"/>
  <path class="cls-2" d="M82.86,23.86l7.65-5.84c.73-.56,1.77-.42,2.33.31.46.61.44,1.43,0,2.01l-5.84,7.65c-.99,1.29-2.84,1.54-4.14.55-1.3-.99-1.54-2.84-.55-4.14.16-.21.35-.4.55-.56Z" fill="#000000"/>
  <path class="cls-2" d="M49.14,28l-5.84-7.65c-.55-.73-.42-1.77.32-2.33.6-.46,1.43-.44,2.01,0l7.65,5.84c1.3.99,1.54,2.84.55,4.14-.99,1.29-2.84,1.54-4.14.55-.21-.16-.4-.36-.56-.55Z" fill="#000000"/>
  <path class="cls-2" d="M87,55.66l5.84,7.65c.55.73.42,1.77-.31,2.33-.61.46-1.43.44-2.01,0l-7.65-5.84c-1.3-.99-1.54-2.84-.55-4.14.99-1.3,2.84-1.54,4.14-.56.21.16.4.36.56.56Z" fill="#000000"/>
  <path class="cls-2" d="M53.28,59.8l-7.65,5.84c-.73.55-1.77.42-2.33-.31-.46-.61-.44-1.43,0-2.01l5.84-7.65c.99-1.3,2.84-1.54,4.14-.56,1.3.99,1.54,2.84.55,4.14-.16.21-.35.4-.55.56Z" fill="#000000"/>
  <path class="cls-5" d="M98.53,39.24l-19.79-8.17-8.16-19.79c-.28-.67-.81-1.24-1.54-1.53-1.43-.59-3.09.09-3.68,1.53l-8.19,19.76-19.77,8.19c-.65.27-1.21.79-1.51,1.49-.61,1.43.05,3.09,1.48,3.71h.04s19.55,8.42,19.55,8.42l8.4,19.55v.03c.29.65.81,1.19,1.51,1.48,1.44.61,3.1-.07,3.7-1.51l8.26-19.69,19.69-8.27h.02c.66-.29,1.22-.82,1.51-1.53.59-1.44-.09-3.09-1.53-3.68ZM76.66,51.12l-8.67,14.29-8.56-14.37c-.15-.26-.38-.49-.66-.66l-14.4-8.57,14.27-8.75c.21-.13.39-.31.53-.53l8.79-14.34,8.81,14.33c.13.2.3.39.52.52l14.31,8.8-14.37,8.72c-.23.14-.43.33-.58.57Z" fill="#000000"/>
  <path class="cls-6" d="M75.36,41.52c-.1.6-.33,1.23-.7,1.87-1.03,1.81-2.64,4.24-4.68,4.99-3.29,1.21-7.23-.76-8.38-4.11-.67-1.96-.02-5.05,1.07-6.71,3.69-5.63,13.67-1.81,12.68,3.97Z" fill="#000000"/>
  <path class="cls-6" d="M453.84,405.38c-1.5-2.44-4.56-3.94-7.02-5.4,25.47-12.64-5.67-41.13-15.85-16.35-1.5-2.9-3.09-5.42-6.15-7.09-3.99-2.18-9.12-1.37-12.6,1.41-4.16,3.32-5.11,8.34-3.04,13.1.67,1.53,1.89,2.92,3.22,3.9.49.36,4.37,2.67,4.62,2.51-1.96,1.31-5.16,3.49-6.31,5.79-7.2,10.54,6.02,24.02,15.95,17.31,2.95-1.76,4.31-4.56,5.61-7.02,1.35,2.62,2.79,5.42,5.22,7.21,3.43,2.52,7.36,3.41,11.39,1.76,3.21-1.31,5.94-3.99,6.96-7.35,1.09-3.57-.11-6.76-1.99-9.8ZM441.23,418.14c-2.96-1.18-5.01-4.51-6.4-7.29-.87-1.96-3.01-2.51-4.05-1.43-1.65,1.16-2.24,3.55-3.61,5-1.58,1.69-3.1,2.84-5.5,2.71-1.78-.09-3.41-.76-4.79-1.88-4.08-3.32-4.61-10.26.08-13.35,1.58-1.04,4.19-2.02,4.37-4.26.09-1.17-.54-2.07-1.06-2.5-1.11-.9-1.58-1.05-2.13-1.47-1.86-1.19-3.71-2.77-4.56-4.86-1.18-2.92.25-5.87,2.69-7.62,3.38-2.42,7.51-2.22,10.25,1.06.63.75,1.23,1.58,1.7,2.43.5.92.83,2.19,1.83,2.72,1.37.73,2.37-.04,3.21-1.36,1.47-2.87,3.27-6.03,6.55-6.92,4.6-1.42,9.94,2.32,11.56,6.74,1.31,3.43.45,7.52-6.53,11.22-2.15,1.12-2.58,2.39-2.32,3.38.34,1.51,1.44,1.99,2.75,2.87,2.27,1.52,4.65,3.34,5.37,6.1,1.01,3.86-2.07,8.39-5.96,9.06-1.27.22-2.41.06-3.44-.35Z" fill="#000000"/>
  <path class="cls-2" d="M427.66,404.18c-.07-.05-.13-.1-.2-.15-3.53-2.7-3.65-8.86-.27-11.68,2.27-1.89,5.38-2.44,8.1-1.2,2.48,1.13,4.83,4.06,4.39,6.91-.13.87-.4,1.7-.73,2.51-1.73,4.35-7.4,6.38-11.3,3.61Z" fill="#000000"/>
  <path class="cls-5" d="M460.53,396.6l11.88,1.37c.97.11,1.66.98,1.56,1.96-.09.83-.76,1.46-1.55,1.55l-11.88,1.37c-4.13.47-4.83-5.77-.72-6.25.23-.03.49-.02.72,0Z" fill="#000000"/>
  <path class="cls-5" d="M429.08,358.15c.11-.97.99-1.66,1.96-1.55.83.09,1.46.75,1.55,1.55l1.37,11.88c.47,4.14-5.77,4.84-6.25.72-.07-.6,1.3-11.99,1.37-12.59Z" fill="#000000"/>
  <path class="cls-5" d="M435.65,427.73l-1.37,11.88c-.12.97-.99,1.66-1.96,1.55-.83-.1-1.46-.75-1.55-1.55l-1.37-11.88c-.52-4.54,6.75-4.71,6.25,0Z" fill="#000000"/>
  <path class="cls-5" d="M402.83,401.16l-11.88-1.36c-.97-.11-1.66-.99-1.55-1.96.09-.83.76-1.47,1.55-1.55l11.88-1.37c1.72-.2,3.28,1.04,3.48,2.76.2,1.72-1.04,3.28-2.76,3.48-.24.02-.49.02-.72,0Z" fill="#000000"/>
  <g>
    <path class="cls-3" d="M125.09,152.19c-1.34,1.85-2.69,3.72-4.03,5.62,1.76,4.76,3.51,9.58,5.27,14.43.5-.41,1.01-.82,1.51-1.23-1.58-4.42-3.17-8.79-4.75-13.13,1.37-1.93,2.74-3.83,4.11-5.71.31.05.62.1.94.15-1.31,1.78-2.61,3.59-3.92,5.42,1.5,4.13,3,8.28,4.5,12.48.3-.3.48-.48.53-.54.42-.45.84-.9,1.26-1.34.76-.77,1.25-1.3,1.46-1.59.5,2.69,1.37,5,2.58,6.96-.71.09-1.22.18-1.54.25-2.33.51-4.05,1.32-5.16,2.35,1.93,5.51,3.86,11.08,5.8,16.71,1.77,1.05,3.54,2.15,5.31,3.29-6.19,1-12.38,2.52-18.56,4.65,1.76-2.03,3.52-4.01,5.28-5.94-1.19-3.24-2.38-6.46-3.57-9.66-2.83,3.65-5.02,7.07-6.58,10.15-.28.04-.56.07-.83.11,1.56-3.04,3.84-6.62,6.85-10.59.1-.16.21-.31.31-.47-.21-.47-.41-.94-.62-1.42-3.03,3.45-5.58,7.27-7.64,11.35-.2-.27-.41-.54-.61-.81-1.18-1.54-2.7-3.2-4.56-4.92-.12-.09-.23-.18-.35-.28-2.09,5.2-3.19,9.2-3.32,11.89-.07,1.59.13,2.79.6,3.61.48.83,1.66,2.01,3.55,3.62.16.15.41.37.76.68-6.62,3.05-13.23,6.83-19.85,11.45-.23-.17-.46-.34-.69-.51,6.24-4.41,12.47-8.07,18.71-11.07-.2-.16-.39-.33-.59-.49-1.52-1.22-2.51-2.23-2.96-3.09-.45-.86-.64-2.04-.57-3.55.12-2.56,1.31-6.95,3.58-13.02-.51-.32-1.02-.63-1.54-.93-.36.97-.82,2.35-1.38,4.17-.46,1.49-.93,2.99-1.39,4.49-.76,2.42-1.17,4.32-1.23,5.68-.07,1.41.11,2.45.54,3.13.42.68,1.34,1.42,2.76,2.26.14.08.35.2.63.38-6.13,3.1-12.25,6.85-18.38,11.32,3.59-4.43,6.48-8.75,8.67-13.19,2.19-4.43,4.44-10.48,6.76-18.14.06-.2.11-.41.17-.61-1.25-.43-3.09-.1-5.53,1.13,1.44-2.89,2.58-5.64,3.42-8.3.33.13.53.22.6.26.53.22,1.05.45,1.58.68.54.25,1.19.46,1.94.64.25-.67.49-1.33.74-2-.14-.05-.28-.1-.42-.15-1.17-.48-2.16-.82-2.96-1.05-.11-.03-.21-.06-.32-.08.21-.38.42-.77.63-1.15,1.26.18,2.46.55,3.61,1.11,1.88-5.54,3.77-11.01,5.65-16.42-1.23-.86-2.46-1.7-3.7-2.51,5.65-2.7,11.3-4.85,16.95-6.52ZM114,163.66c-2.19,6.06-4.39,12.2-6.58,18.43,1.77,1.06,3.29,2.26,4.55,3.58.53.56,1.05,1.12,1.58,1.69.02.02.14.13.35.34.23-.32.36-.5.39-.56.18-.28.36-.57.54-.85.08-.13.22-.35.43-.65-1.59-2.02-3.47-3.62-5.65-4.76,1.77-4.97,3.53-9.88,5.3-14.74-.3-.83-.6-1.65-.89-2.47ZM115.45,167.34c-1.52,4.16-3.03,8.36-4.55,12.6.21.15.32.25.35.29.48.35.95.71,1.43,1.07.77.56,1.73,1.53,2.89,2.94.11.14.23.28.34.42,1.12-1.76,2.43-3.57,3.94-5.4-1.46-4.01-2.93-7.98-4.39-11.92ZM135.11,167.86c.43,2.13,1.64,4.92,3.61,8.45-.54.01-.84.03-.91.04-.99.08-1.98.18-2.96.29-1.34.15-2.32.3-2.93.44-.1.02-.34.09-.74.21,1.79,5.02,3.58,10.09,5.36,15.2,2.62,1.94,5.24,3.98,7.85,6.1-7.1.79-14.19,2.25-21.29,4.49-.22-.26-.43-.53-.65-.79,6.51-2.1,13.01-3.53,19.52-4.4-2.11-1.67-4.23-3.28-6.34-4.83-1.91-5.42-3.81-10.79-5.72-16.1.84-.43,1.8-.77,2.88-1,1.32-.29,2.79-.47,4.4-.54-.13-.25-.27-.49-.4-.74-1.43-2.64-2.36-5.06-2.79-7.31.37.16.74.32,1.11.48Z" fill="#000000"/>
    <path class="cls-3" d="M148.75,152.91c6.01-4.3,12.65-6.26,19.9-5.67,5.27.43,9.51,2.23,12.73,5.13,3.22,2.91,4.74,6.29,4.56,10.01-.24,4.98-3.29,7.67-9.15,8.55,0,.13-.01.27-.02.4.58.23,1.28.52,2.1.89,2.75-.23,4.95-1.13,6.6-2.78,1.65-1.65,2.54-3.83,2.67-6.58.17-3.45-1.12-6.83-3.86-10.03,0-.07,0-.15.01-.22.13.13.26.27.39.4,3.09,3.06,4.55,6.57,4.36,10.41-.25,5.32-3.2,8.36-8.84,9.57,2.35,1.48,4.14,3.38,5.38,5.65,1.24,2.28,1.8,4.69,1.68,7.22-.17,3.63-1.64,6.25-4.39,7.96-2.75,1.72-6.33,2.26-10.74,1.79-8.77-.92-17.55-1.05-26.32-.18,1.76-1.62,3.52-3.21,5.28-4.75.25-5.33.5-10.66.76-15.99-1.45.07-3.15.32-5.09.8-.08-.35-.16-.7-.24-1.05,2.19-.43,3.99-.64,5.38-.71.03-.65.06-1.3.09-1.96-.31.01-.61.03-.92.05-1.37.08-3.11.29-5.2.69.6-1.24,1.19-2.47,1.79-3.7.2,0,.39,0,.59,0,.95,0,1.67-.01,2.16-.04.74-.04,1.31-.04,1.72.02.22-4.63.44-9.26.66-13.88-1.35-.68-2.7-1.34-4.05-1.98ZM186.76,177.23c2.53,2.54,3.69,5.9,3.49,10.01-.2,4.14-1.82,7.22-4.87,9.36-2.97,2.1-7.21,2.68-12.72,2.07-8.33-.9-16.66-1.1-25-.4-.19-.32-.39-.63-.58-.95,7.73-.69,15.46-.6,23.2.11,5.05.47,8.71.53,10.99-.13,5.06-1.46,7.73-4.86,8-10.54.15-3.16-.84-6.28-2.97-9.3.15-.08.3-.16.46-.24ZM159.35,171.67c-.32,6.76-.64,13.53-.96,20.29.61,0,1.23,0,1.84.02.29-6.02.57-12.05.86-18.07,1.75-.08,3-.08,3.76-.04,4.07.22,7,.92,8.79,1.89,1.79.97,3.17,2.61,4.15,4.88-.15-.02-.29-.04-.44-.06-1.12-1.85-2.57-3.22-4.35-4.06-1.78-.85-4.43-1.44-7.93-1.63-1.01-.03-2.01-.05-3.02-.06-.27,5.73-.54,11.45-.82,17.18.39.01.78.02,1.18.04,1.78,0,3.56.04,5.34.11,6.93.05,10.55-2.66,10.85-8.89.19-3.87-.83-6.71-3.04-8.43-2.21-1.71-6.44-2.97-12.69-3.22-.61-.02-1.78-.02-3.5.06ZM160.28,152.04c-.26,5.53-.53,11.07-.79,16.6.27-.02.45-.03.55-.03.22.02.44.03.66.05.1,0,.31,0,.63.02.24-5.02.48-10.03.71-15.05,2.15-.91,4.24-1.28,6.25-1.13,2.3.18,4.1.79,5.4,1.78,1.3.98,2.36,2.55,3.2,4.68-.33-.24-.67-.48-1-.72-1.71-3-4.26-4.7-7.67-4.96-1.91-.15-3.65.3-5.22,1.31-.22,4.71-.45,9.41-.67,14.12.51.02,1.03.04,1.54.06,4.68.22,8.2-.17,10.57-1.45,2.36-1.27,3.62-3.47,3.78-6.66.13-2.8-.71-5.21-2.52-7.18-1.82-1.96-4.27-3.12-7.36-3.36-2.72-.21-5.4.43-8.05,1.93Z" fill="#000000"/>
    <path class="cls-3" d="M217.35,158.5c5.96,2.04,10.61,6.07,13.96,11.88,3.35,5.82,4.85,12.47,4.49,19.89-.34,7.02-2.37,11.9-6.09,14.72-3.72,2.83-8.54,3.16-14.47,1.18-4.68-1.56-8.78-4.3-12.29-8.29-5.16-5.87-7.53-12.94-7.12-21.52.35-7.33,2.47-12.72,6.35-16.01,3.88-3.29,8.94-3.96,15.16-1.83ZM217.2,161.61c-8.28-2.82-12.77,3.27-13.46,17.65-.64,13.33,3.12,21.03,11.28,23.73,3.8,1.27,6.78.55,8.93-2.24,2.15-2.79,3.39-7.54,3.72-14.3.37-7.65-.33-13.34-2.09-17.06-1.86-3.88-4.65-6.5-8.38-7.77ZM228.99,164.58c3.42,3,6.06,6.94,7.9,11.77,1.84,4.84,2.63,9.9,2.38,15.18-.38,7.76-2.68,13.2-6.92,16.41-4.24,3.22-9.62,3.61-16.13,1.41-4.17-1.41-8-4.02-11.49-7.85,0-.06,0-.12,0-.18,2.93,3.09,6.69,5.35,11.27,6.9,6.15,2.08,11.31,1.69,15.48-1.34,4.17-3.03,6.42-8.04,6.76-15.12.25-5.28-.42-10.25-2.03-14.92-1.61-4.67-4.02-8.63-7.24-11.84,0-.13.01-.27.02-.4ZM224.8,169.84c-.2-.2-.4-.39-.61-.59-2.29-2.14-4.42-3.54-6.38-4.22-6.45-2.21-9.97,3.13-10.57,15.63-.44,9.16,1.26,15.8,5.12,20.06-.12.09-.23.17-.35.26-2.37-2.5-4.01-5.29-4.91-8.4-.91-3.11-1.25-7.05-1.02-11.82.65-13.43,4.55-19.14,11.7-16.69,3.26,1.12,5.6,3.07,7.01,5.77Z" fill="#000000"/>
    <path class="cls-3" d="M285.88,187.19c-2.28.79-4.55,1.56-6.83,2.34-.38,7.77-.75,15.54-1.13,23.31-.21,4.28-.5,7.3-.87,9.05-.37,1.75-1.01,3.05-1.9,3.89-2.26,2.16-6.42,1.91-12.5-.73-6.42-2.79-10.83-6.24-13.23-10.4-1.92-3.29-2.71-8.37-2.38-15.26.39-7.99.77-15.98,1.16-23.98-1.6-2.17-3.19-4.33-4.79-6.49,5.78,2.39,11.57,4.87,17.35,7.38-1.74.88-3.49,1.76-5.23,2.64-.38,7.87-.76,15.74-1.14,23.6-.07,1.86-.13,3.73-.2,5.59-.17,3.59.46,6.45,1.91,8.61,1.45,2.16,3.97,4.01,7.57,5.58,3.97,1.73,6.76,1.78,8.36.15,1.29-1.33,2.08-5.04,2.38-11.12.43-7.76.85-15.52,1.28-23.28-1.83-2.55-3.66-5.1-5.49-7.66,5.22,2.28,10.44,4.55,15.66,6.77ZM287.02,190.18c-1.73.65-3.46,1.3-5.2,1.94-.36,7.47-.72,14.94-1.09,22.41-.36,7.34-1.18,11.87-2.46,13.6-2.62,3.48-7.42,3.7-14.41.65-6.03-2.63-10.49-6.05-13.39-10.3.1.09.19.18.29.27.42.42.83.85,1.25,1.27,2.93,3.02,6.76,5.55,11.49,7.61,6.76,2.95,11.35,2.81,13.76-.42,1.29-1.75,2.09-6.04,2.43-12.88.37-7.7.75-15.4,1.12-23.1,1.9-.68,3.79-1.36,5.69-2.06.17.33.34.66.52.99ZM262.23,178.92c-1.26.67-2.52,1.34-3.77,2.01-.43,8.94-.87,17.88-1.3,26.81-.05.82-.1,1.65-.16,2.47.31,1.69.61,3.38.92,5.07.52,1.16,1.53,2.72,3.04,4.7.02.12.04.24.06.36-2.02-1.71-3.38-3.51-4.09-5.42-.71-1.9-.98-4.49-.83-7.76.44-9.02.87-18.05,1.31-27.07,1.45-.73,2.9-1.45,4.35-2.17.16.33.32.65.48.98Z" fill="#000000"/>
    <path class="cls-3" d="M330.4,203.93c-.24.35-.4.58-.48.7-.9,1.2-1.81,2.39-2.71,3.58-.93,1.28-1.82,2.96-2.67,5.04-.03.05-.06.1-.08.16-.12-.12-.24-.25-.35-.37-.03-.17-.06-.34-.09-.51-.58-2.99-1.5-5.23-2.76-6.74-1.26-1.51-3.24-2.73-5.93-3.7-1.1-.4-2.21-.75-3.32-1.06-.15-.05-.29-.11-.44-.16-.63,13.08-1.26,26.15-1.89,39.23,1.38,1.86,2.77,3.71,4.15,5.56-5.6-2.04-11.2-4.24-16.8-6.53,1.78-.71,3.57-1.43,5.35-2.15.58-11.99,1.16-23.98,1.74-35.97-.87-.35-1.74-.71-2.61-1.07-2.52-1.01-4.34-1.25-5.46-.72-1.11.54-1.83,1.99-2.14,4.37-.32-.13-.64-.26-.96-.4.41-2.7,1.24-4.36,2.51-4.97,1.27-.61,3.3-.34,6.09.77.73.31,1.47.61,2.2.91.13.05.27.11.4.16.03-.59.06-1.18.09-1.77-1.24-.64-2.43-1.18-3.56-1.63-3.16-1.27-5.47-1.58-6.93-.89-1.46.69-2.33,2.5-2.63,5.45-.15-.06-.29-.12-.44-.18-.89-3.79-2.34-8.21-4.35-13.26-.07-.15-.14-.3-.2-.45,14.75,6.28,29.51,12.17,44.26,16.64ZM322.52,209.49c-1.83-1.84-4.01-3.2-6.53-4.11-.56-.2-1.15-.38-1.77-.53-.54,12.15-1.07,24.29-1.61,36.44,1.84,2.99,3.68,5.96,5.52,8.91-6.26-2.2-12.52-4.6-18.79-7.13-.27-.44-.53-.88-.8-1.32,5.87,2.38,11.74,4.65,17.61,6.75-1.55-2.43-3.11-4.88-4.66-7.34.61-12.57,1.21-25.14,1.82-37.72.66.23,1.32.46,1.99.69,2.38.86,4.05,1.63,5.03,2.34.97.72,1.7,1.72,2.19,3.01ZM332.61,206.91c-1.79,1.64-3.74,4.63-5.84,8.97-.05.11-.11.21-.16.32-.26-.32-.52-.63-.78-.95.04-.1.08-.19.13-.29,2.05-4.42,3.97-7.37,5.76-8.83.06-.05.13-.11.19-.16.23.31.47.63.7.94Z" fill="#000000"/>
    <path class="cls-3" d="M401.31,210.31c-1.76,2.03-3.52,4.01-5.28,5.96-.6,12.69-1.2,25.38-1.8,38.07,1.44,1.27,2.88,2.51,4.32,3.72-5.64.88-11.27,1.33-16.91,1.4,1.77-1.46,3.54-2.95,5.31-4.49.39-8.29.78-16.58,1.18-24.87-4.39,11-8.78,21.75-13.18,32.29-1.18-.05-2.35-.11-3.53-.19-.08-.34-.17-.67-.25-1.01,1.07.07,2.13.13,3.2.18,4.63-11.22,9.27-22.68,13.9-34.41.09-1.88.18-3.77.27-5.65-5.16,12.97-10.31,25.6-15.47,37.94-.86-.05-1.72-.1-2.57-.16-2.89-10.12-5.77-20.33-8.66-30.62-.31,6.46-.62,12.91-.92,19.37-.12,2.59-.04,4.44.25,5.56.29,1.12,1.04,2.41,2.26,3.86,1.04,1.53,2.07,3.04,3.11,4.54-6.41-.64-12.82-1.71-19.23-3.11-.21-.38-.41-.75-.62-1.13,6.02,1.34,12.03,2.38,18.05,3.06-.42-.72-.84-1.45-1.26-2.17-5.47-.66-10.93-1.62-16.4-2.83.26-.08.53-.15.79-.23,2.79-.9,4.66-2.07,5.6-3.43.94-1.36,1.49-3.69,1.65-6.98.48-10.07.96-20.15,1.45-30.22-1.55-1.78-3.09-3.58-4.63-5.4,6.33,1.22,12.67,2.09,19,2.53-1.85,1.48-3.71,2.93-5.56,4.33,2.98,10.6,5.96,21.11,8.94,31.52.49-1.05.98-2.1,1.48-3.15-2.7-9.2-5.41-18.49-8.11-27.85,1.66-1.04,3.32-2.11,4.98-3.2.25.22.49.45.74.67-1.58,1-3.17,1.97-4.75,2.92,2.51,8.77,5.02,17.48,7.53,26.12,3.58-8.65,7.15-17.44,10.73-26.4-1.42-1.53-2.84-3.09-4.26-4.67,6.21-.13,12.43-.72,18.64-1.85ZM359.29,219.32c-.42,8.76-.84,17.51-1.25,26.26-.19,4.02.06,6.85.76,8.48.7,1.63,2.24,2.97,4.64,3.95-.1-.2-.2-.39-.3-.59-2.32-1.96-3.41-4.54-3.26-7.66.04-.9.09-1.81.13-2.71.34-7.21.69-14.42,1.03-21.63-.58-2.03-1.16-4.07-1.74-6.11ZM403.24,212.81c-1.43,1.28-2.86,2.53-4.3,3.76-.59,12.47-1.18,24.94-1.76,37.41,2.02,2.14,4.03,4.23,6.05,6.25-6.51,1.3-13.01,2.01-19.52,2.19-.16-.33-.31-.66-.47-.98,5.93-.15,11.86-.72,17.79-1.79-1.61-1.64-3.22-3.31-4.83-5.02.61-12.84,1.21-25.69,1.82-38.54,1.49-1.22,2.99-2.47,4.48-3.76.25.16.49.32.74.48Z" fill="#000000"/>
    <path class="cls-3" d="M446.71,191.29c-.21.37-.41.75-.62,1.12-2.64,4.85-4.8,9.69-6.46,14.65-.22-.44-.38-.76-.49-.96-1.21-2.24-2.56-3.37-4.07-3.42-1.5-.05-4.25.98-8.25,2.76-1.84.81-4.05,1.8-6.62,2.88-.27,5.75-.54,11.5-.8,17.24.78-.28,1.57-.58,2.35-.88.24-5.09.47-10.18.71-15.27,1.87-.91,3.65-1.76,5.34-2.53,3.11-1.42,5.39-2.27,6.83-2.38,1.44-.1,2.69.48,3.75,1.79-.33-.05-.57-.1-.71-.15-1.91-.49-3.3-.69-4.17-.53-.87.15-2.6.91-5.2,2.11-.78.36-2.18,1.05-4.2,1.98-.26.12-.51.24-.77.35-.22,4.76-.44,9.51-.67,14.27,2.25-.9,4.51-1.88,6.76-2.94,1.68-2.97,3.37-5.99,5.05-9.06-.25,5.43-.5,10.85-.75,16.28-1.48-1.28-2.97-2.59-4.45-3.94-3.35,1.58-6.69,2.96-10.04,4.17-.33,7.01-.65,14.01-.98,21.02.78-.27,1.57-.56,2.35-.85.3-6.43.6-12.85.9-19.28,2.66-1.03,5.32-2.17,7.98-3.43.3.18.61.35.91.52-2.67,1.29-5.34,2.47-8.01,3.52-.28,6.11-.57,12.21-.85,18.31,5-1.93,8.57-4.05,10.71-5.83,2.14-1.8,3.86-4.14,5.16-6.96.7-1.52,1.4-3.04,2.11-4.57.08-.19.24-.56.48-1.1.51,2.4,1.2,4.14,2.06,5.23.87,1.08,2.34,2.05,4.42,2.81-13.74,9.29-27.47,15.04-41.21,18.06,1.93-1.85,3.86-3.75,5.79-5.71.26-5.55.52-11.1.78-16.65-2.07.83-3.96,1.95-5.68,3.37-.16-.22-.32-.44-.48-.67,1.55-1.43,3.61-2.62,6.2-3.68.03-.58.06-1.17.08-1.76-.41.07-.71.13-.88.17-2.5.69-4.82,2.16-6.97,4.45,1.31-4.21,3.98-6.73,8-7.88.25-5.32.5-10.63.75-15.95-1.79-.94-3.59-1.94-5.38-2.98,13.07-3.16,26.15-8.82,39.22-17.71ZM450.66,235.49c-.69,1.61-1.38,3.21-2.07,4.8-13.38,9.41-26.76,15.41-40.14,18.77-.18-.29-.36-.57-.54-.86,13.42-3.29,26.84-9.24,40.25-18.6.45-1.09.91-2.18,1.36-3.28-3.37-.86-5.7-2.88-6.97-5.79.39-.09.77-.19,1.16-.29,1.2,2.37,3.33,4.14,6.39,5.07.19.06.37.12.56.18ZM436.97,212.18c-.26,5.57-.51,11.14-.77,16.71-.3,0-.6,0-.9.01.26-5.57.51-11.14.77-16.71.3,0,.6-.01.9-.02ZM448.35,192.74c-.09.17-.18.35-.27.52-3.18,6.24-5.34,10.95-6.47,14.38-.2-.14-.39-.27-.59-.41,1.82-4.92,4.11-9.85,6.86-14.93.16.15.32.29.48.44Z" fill="#000000"/>
  </g>
</svg>